<?xml version="1.0" encoding="utf-8"?>
<!DOCTYPE svg PUBLIC "-//W3C//DTD SVG 1.1//EN" "http://www.w3.org/Graphics/SVG/1.1/DTD/svg11.dtd">
<svg style="width:308px;height:308px;" version="1.1" id="图形" xmlns="http://www.w3.org/2000/svg" xmlns:xlink="http://www.w3.org/1999/xlink" x="0px" y="0px" width="1376px" height="1024px" viewBox="0 0 1376 1024" enable-background="new 0 0 1376 1024" xml:space="preserve">
  <path class="svgpath" data-index="path_0" fill="#272636" d="M1367.296 449.578656C1367.296 496.384 1329.365344 534.357344 1282.517344 534.357344 1260.672 534.357344 1240.96 525.824 1225.941344 512.256L1221.632 508.245344C1116.416 320.298656 915.2 174.421344 684.501344 174.421344 464.384 174.421344 271.616 317.653344 162.986656 491.477344 160.128 498.346656 156.16 504.576 151.722656 510.378656 149.930656 513.365344 148.053344 516.266656 146.346656 519.296L147.925344 515.541344C132.565344 531.242656 108.501344 543.701344 84.736 543.701344 37.930656 543.701344 0 505.728 0 458.965344 0 435.029344 1.92 407.722656 17.877344 392.32L18.645344 390.656 17.877344 392.32C152.490656 130.944 373.12 0 685.013344 0 1011.2 0 1196.842656 135.082656 1365.674656 424.832 1372.544 440.234656 1367.296 449.578656 1367.296 449.578656L1367.296 449.578656ZM679.210656 357.717344C856.021344 357.717344 1005.525344 457.898656 1093.162656 595.754656 1110.954656 619.818656 1127.637344 635.733344 1127.637344 663.637344 1127.637344 710.485344 1089.706656 748.416 1042.901344 748.416 1026.261344 748.416 1010.858656 743.424 997.802656 735.189344L990.933344 729.984C980.266656 720.128 984.746656 723.797344 978.517344 715.861344 970.496 706.133344 967.210656 697.258656 959.957344 684.629344 903.04 587.605344 799.317344 520.874656 678.656 520.874656 558.08 520.874656 453.589344 586.496 396.672 683.434656 387.498656 698.069344 382.933344 710.570656 371.541344 732.544 367.829344 736.554656 371.797344 733.141344 367.530656 737.109344L362.410656 741.589344C348.458656 751.658656 331.477344 757.76 312.96 757.76 266.154656 757.76 228.224 719.829344 228.224 673.024 228.224 647.722656 237.184 627.328 254.293344 609.365344 347.562656 460.458656 496.64 357.717344 679.210656 357.717344L679.210656 357.717344ZM674.261344 695.04C764.16 695.04 837.034656 767.914656 837.034656 857.813344 837.034656 947.626656 764.16 1020.501344 674.261344 1020.501344 584.405344 1020.501344 511.573344 947.626656 511.573344 857.813344 511.573344 767.914656 584.405344 695.04 674.261344 695.04L674.261344 695.04Z" />

</svg>
