<?xml version="1.0" encoding="utf-8"?>
<!-- Generator: Adobe Illustrator 14.0.0, SVG Export Plug-In . SVG Version: 6.00 Build 43363)  -->
<!DOCTYPE svg PUBLIC "-//W3C//DTD SVG 1.1//EN" "http://www.w3.org/Graphics/SVG/1.1/DTD/svg11.dtd">
<svg version="1.1" id="图层_1" xmlns="http://www.w3.org/2000/svg" xmlns:xlink="http://www.w3.org/1999/xlink" x="0px" y="0px"
	 width="242.65px" height="153.01px" viewBox="0 0 242.65 153.01" enable-background="new 0 0 242.65 153.01" xml:space="preserve">
<path stroke="#303030" stroke-width="10" d="M174.315,55.673c0-19.895-24.119-36.023-53.869-36.023
	c-29.75,0-53.868,16.128-53.868,36.023c0,17.34,18.323,31.816,42.728,35.248c1.846,1.121,4.027,2.152,6.272,3.041
	c-1.794,1.822-3.511,3.945-5.048,6.436c-9.339,15.125-3.883,30.121-3.646,30.752c0.646,1.725,2.57,2.629,4.299,2.021
	c1.727-0.607,2.604-2.496,1.956-4.219c-0.046-0.125-4.578-12.578,3.107-25.023c1.983-3.213,4.321-5.691,6.701-7.609
	c2.143,0.52,4.023,0.811,5.334,0.811c4.857,0,8.969-3.176,10.383-7.563C159.446,84.572,174.315,71.29,174.315,55.673z
	 M120.65,89.679c-2.328-0.986-4.367-2.318-4.367-3.639c0-2.566,7.718-4.098,10.285-4.098c1.877,0,3.486,1.118,4.219,2.722
	C127.937,85.583,124.315,87.122,120.65,89.679z M138.688,82.927c-1.395-4.42-5.525-7.624-10.406-7.624
	c-3.082,0-9.324,0.942-14.691,2.667l-0.001-0.001c0,0-0.005,0.003-0.006,0.003c-0.417,0.135-0.829,0.273-1.234,0.418
	c-1.438,0.304-4.26,0.471-9.139-0.773c0,0-0.013,0.008-0.02,0.012c-0.08-0.024-0.141-0.044-0.165-0.053
	c-1.741-0.598-3.604,0.332-4.161,2.076c-0.184,0.573-0.499,1.423-0.639,2.201c-15.232-4.867-25.642-14.64-25.642-25.916
	c0-16.135,21.293-29.213,47.558-29.213S167.7,39.803,167.7,55.937C167.7,68.226,156.022,78.637,138.688,82.927z"/>
</svg>
